<svg id="visual" viewBox="0 0 900 600" width="900" height="600" xmlns="http://www.w3.org/2000/svg" xmlns:xlink="http://www.w3.org/1999/xlink" version="1.1"><rect x="0" y="0" width="900" height="600" fill="#001220"></rect><defs><linearGradient id="grad1_0" x1="33.3%" y1="0%" x2="100%" y2="100%"><stop offset="20%" stop-color="#001220" stop-opacity="1"></stop><stop offset="80%" stop-color="#001220" stop-opacity="1"></stop></linearGradient></defs><defs><linearGradient id="grad2_0" x1="0%" y1="0%" x2="66.7%" y2="100%"><stop offset="20%" stop-color="#001220" stop-opacity="1"></stop><stop offset="80%" stop-color="#001220" stop-opacity="1"></stop></linearGradient></defs><g transform="translate(900, 0)"><path d="M0 486.7C-46.7 443.7 -93.3 400.7 -159.6 385.3C-225.9 369.8 -311.7 381.9 -344.2 344.2C-376.6 306.5 -355.6 219.1 -370.5 153.5C-385.3 87.8 -436 43.9 -486.7 0L0 0Z" fill="#FBAE3C"></path></g><g transform="translate(0, 600)"><path d="M0 -486.7C68.4 -484.3 136.8 -481.8 186.3 -449.7C235.7 -417.5 266.1 -355.7 309 -309C351.9 -262.3 407.1 -230.8 438.8 -181.8C470.5 -132.8 478.6 -66.4 486.7 0L0 0Z" fill="#FBAE3C"></path></g></svg>